<svg width="24" height="32" viewBox="0 0 24 32" fill="none" xmlns="http://www.w3.org/2000/svg">
<path d="M11.5699 5.28135L7.59232 0H0L11.5699 15.42L15.3805 10.28L11.5699 5.25244V5.28135Z" fill="#EE5396"/>
<path d="M15.4923 0L11.5693 5.25244L15.3799 10.28L23.1135 0H15.4923Z" fill="#EE5396"/>
<path opacity="0.5" d="M12.1921 4.43359L11.5693 5.25278L15.3799 10.2803L16.1151 9.3198L12.1921 4.43359Z" fill="#D02670"/>
<path d="M11.5701 20.5039C10.8638 20.5039 10.2988 21.0693 10.2988 21.7761V23.0193H12.8382V21.7761C12.8382 21.0693 12.2732 20.5039 11.5669 20.5039H11.5701Z" fill="#EE5396"/>
<path d="M11.5695 15.4492C6.99805 15.4492 3.2998 19.15 3.2998 23.7246C3.2998 28.2992 6.99805 32 11.5695 32C16.1409 32 19.8392 28.2992 19.8392 23.7246C19.8392 19.15 16.1409 15.4492 11.5695 15.4492ZM15.1522 27.1973C15.1522 27.7049 14.7284 28.129 14.2212 28.129H8.91459C8.40737 28.129 7.98361 27.7049 7.98361 27.1973V24.0073C7.98361 23.4997 8.40737 23.0757 8.91459 23.0757H9.05584V21.8325C9.05584 20.419 10.1859 19.2914 11.5663 19.2914C12.9467 19.2914 14.1056 20.4479 14.1056 21.8325V23.0757H14.2469C14.783 23.0757 15.2067 23.4997 15.1779 24.0073L15.149 27.1973H15.1522Z" fill="#EE5396"/>
<path d="M10.6676 24.7106C10.6387 24.6817 10.6387 24.6528 10.6387 24.6271C10.6387 24.6014 10.6676 24.5435 10.7221 24.5146L11.2583 24.0617C11.3417 24.0038 11.4573 23.9492 11.5697 23.9492H11.8811C11.9388 23.9492 11.9934 23.9781 12.0223 24.007C12.0512 24.036 12.0801 24.0906 12.0801 24.1484V26.8597C12.0801 26.9176 12.0512 26.9722 12.0223 27.0011C11.9645 27.03 11.9388 27.0589 11.8811 27.0589H11.4862C11.4284 27.0589 11.3738 27.03 11.3449 27.0011C11.316 26.9722 11.2871 26.9176 11.2871 26.8597V24.7427L11.0335 24.9419C11.0046 24.9708 10.9758 24.9708 10.9212 24.9708C10.8923 24.9708 10.8634 24.9419 10.8377 24.913L10.6676 24.7138V24.7106Z" fill="#EE5396"/>
</svg>
