<svg width="24" height="32" viewBox="0 0 24 32" fill="none" xmlns="http://www.w3.org/2000/svg">
<path d="M11.5698 5.28182L7.59229 0H0L11.5698 15.4214L15.3804 10.2809L11.5698 5.2529V5.28182Z" fill="#2769FC"/>
<path d="M15.4923 0L11.5693 5.2529L15.3799 10.2809L23.1135 0H15.4923Z" fill="#2769FC"/>
<path opacity="0.5" d="M12.1921 4.43066L11.5693 5.24992L15.3799 10.2779L16.1151 9.31731L12.1921 4.43066Z" fill="#0040AA"/>
<path d="M11.5701 20.5068C10.8638 20.5068 10.2988 21.0723 10.2988 21.7791V23.0224H12.8382V21.7791C12.8382 21.0723 12.2731 20.5068 11.5669 20.5068H11.5701Z" fill="#2769FC"/>
<path d="M11.5695 15.4473C6.99804 15.4473 3.2998 19.1484 3.2998 23.7234C3.2998 28.2984 6.99804 31.9995 11.5695 31.9995C16.1409 31.9995 19.8391 28.2984 19.8391 23.7234C19.8391 19.1484 16.1409 15.4473 11.5695 15.4473ZM15.1521 27.1964C15.1521 27.704 14.7284 28.1281 14.2211 28.1281H8.91457C8.40735 28.1281 7.98359 27.704 7.98359 27.1964V24.0061C7.98359 23.4985 8.40735 23.0744 8.91457 23.0744H9.05582V21.8311C9.05582 20.4174 10.1858 19.2898 11.5663 19.2898C12.9467 19.2898 14.1056 20.4464 14.1056 21.8311V23.0744H14.2468C14.7829 23.0744 15.2067 23.4985 15.1778 24.0061L15.1489 27.1964H15.1521Z" fill="#2769FC"/>
<path d="M10.6676 24.7106C10.6387 24.6817 10.6387 24.6528 10.6387 24.6271C10.6387 24.6014 10.6676 24.5436 10.7221 24.5147L11.2583 24.0617C11.3417 24.0038 11.4573 23.9492 11.5697 23.9492H11.881C11.9388 23.9492 11.9934 23.9781 12.0223 24.007C12.0512 24.036 12.0801 24.0906 12.0801 24.1484V26.86C12.0801 26.9178 12.0512 26.9724 12.0223 27.0014C11.9645 27.0303 11.9388 27.0592 11.881 27.0592H11.4862C11.4284 27.0592 11.3738 27.0303 11.3449 27.0014C11.316 26.9724 11.2871 26.9178 11.2871 26.86V24.7428L11.0335 24.942C11.0046 24.9709 10.9758 24.9709 10.9212 24.9709C10.8923 24.9709 10.8634 24.942 10.8377 24.9131L10.6676 24.7139V24.7106Z" fill="#2769FC"/>
</svg>
