<svg width="24" height="32" viewBox="0 0 24 32" fill="none" xmlns="http://www.w3.org/2000/svg">
<path d="M11.5697 5.28139L7.59224 0H0L11.5697 15.4201L15.3803 10.2801L11.5697 5.25248V5.28139Z" fill="#DA1E28"/>
<path d="M15.4923 0L11.5693 5.25248L15.3799 10.2801L23.1134 0H15.4923Z" fill="#DA1E28"/>
<path opacity="0.5" d="M12.1921 4.43359L11.5693 5.25279L15.3799 10.2804L16.115 9.31985L12.1921 4.43359Z" fill="#AA0009"/>
<path d="M11.5701 20.502C10.8638 20.502 10.2988 21.0674 10.2988 21.7741V23.0174H12.8381V21.7741C12.8381 21.0674 12.2731 20.502 11.5669 20.502H11.5701Z" fill="#DA1E28"/>
<path d="M11.5694 15.4492C6.99801 15.4492 3.2998 19.15 3.2998 23.7247C3.2998 28.2993 6.99801 32.0002 11.5694 32.0002C16.1408 32.0002 19.839 28.2993 19.839 23.7247C19.839 19.15 16.1408 15.4492 11.5694 15.4492ZM15.152 27.1974C15.152 27.705 14.7283 28.1291 14.2211 28.1291H8.91453C8.40731 28.1291 7.98356 27.705 7.98356 27.1974V24.0074C7.98356 23.4998 8.40731 23.0758 8.91453 23.0758H9.05578V21.8325C9.05578 20.419 10.1858 19.2914 11.5662 19.2914C12.9466 19.2914 14.1055 20.4479 14.1055 21.8325V23.0758H14.2468C14.7829 23.0758 15.2066 23.4998 15.1777 24.0074L15.1488 27.1974H15.152Z" fill="#DA1E28"/>
<path d="M10.6676 24.7106C10.6387 24.6817 10.6387 24.6528 10.6387 24.6271C10.6387 24.6014 10.6676 24.5435 10.7221 24.5146L11.2583 24.0617C11.3417 24.0038 11.4573 23.9492 11.5696 23.9492H11.881C11.9388 23.9492 11.9934 23.9781 12.0223 24.007C12.0512 24.036 12.0801 24.0906 12.0801 24.1484V26.8598C12.0801 26.9176 12.0512 26.9722 12.0223 27.0011C11.9645 27.03 11.9388 27.0589 11.881 27.0589H11.4862C11.4284 27.0589 11.3738 27.03 11.3449 27.0011C11.316 26.9722 11.2871 26.9176 11.2871 26.8598V24.7427L11.0335 24.9419C11.0046 24.9708 10.9757 24.9708 10.9212 24.9708C10.8923 24.9708 10.8634 24.9419 10.8377 24.913L10.6676 24.7138V24.7106Z" fill="#DA1E28"/>
</svg>
