<svg width="39" height="55" viewBox="0 0 39 55" fill="none" xmlns="http://www.w3.org/2000/svg">
<g clip-path="url(#clip0_2225_3640)">
<path fill-rule="evenodd" clip-rule="evenodd" d="M19.331 9.03501L12.6676 1.52851e-09L0 2.26373e-09L19.331 26.37L25.6838 17.5806L19.331 8.99349L19.331 9.03501ZM25.852 7.63284e-10L19.3449 8.99349L20.375 7.612L26.9087 15.9299L25.6975 17.5806L26.9286 15.9552L26.9087 15.9299L38.5986 0L25.852 7.63284e-10Z" fill="#45C269"/>
<path d="M19.3386 35.0801C19.0593 35.0809 18.783 35.1376 18.5257 35.2468C18.2684 35.3559 18.0351 35.5154 17.8393 35.716C17.6436 35.9165 17.4892 36.1542 17.3852 36.4153C17.2813 36.6763 17.2297 36.9555 17.2336 37.2368L17.2336 39.3537L21.4847 39.3537L21.4847 37.2368C21.4772 36.6663 21.2485 36.1214 20.8475 35.7184C20.4465 35.3154 19.9049 35.0863 19.3386 35.0801Z" fill="#45C269"/>
<path d="M19.3344 26.4078C16.5437 26.3598 13.802 27.1495 11.4584 28.6763C9.11485 30.2031 7.27536 32.398 6.17429 34.9814C5.07322 37.5649 4.76035 40.42 5.27556 43.1831C5.79078 45.9464 7.1107 48.4925 9.06731 50.4973C11.0239 52.5025 13.5286 53.8755 16.2624 54.4416C18.9963 55.0077 21.8356 54.7418 24.4187 53.677C27.0019 52.6121 29.212 50.7971 30.7676 48.4627C32.3232 46.1283 33.1539 43.3808 33.154 40.5691C33.1717 38.7247 32.828 36.8948 32.1427 35.1844C31.4574 33.4739 30.4439 31.9164 29.1602 30.601C27.8766 29.2856 26.3479 28.2381 24.6618 27.5186C22.9758 26.7991 21.1654 26.4216 19.3344 26.4078ZM25.2904 46.5117C25.2866 46.9264 25.1235 47.3234 24.8354 47.6191C24.5473 47.9152 24.1565 48.0872 23.7452 48.0996L14.8909 48.0996C14.4795 48.0872 14.0888 47.9152 13.8007 47.6191C13.5126 47.3234 13.3495 46.9264 13.3456 46.5117L13.3456 41.0586C13.3495 40.6441 13.5126 40.2471 13.8007 39.9511C14.0888 39.6551 14.4795 39.4829 14.8909 39.4709L15.1296 39.4709L15.1296 37.3557C15.1218 36.792 15.2245 36.2323 15.4317 35.7086C15.6389 35.1849 15.9466 34.7075 16.3371 34.3036C16.7276 33.8998 17.1934 33.5775 17.7077 33.3551C18.222 33.1328 18.7747 33.0147 19.3344 33.0077C20.4687 33.0254 21.5505 33.4923 22.3457 34.3073C23.141 35.1223 23.5857 36.2198 23.5838 37.3626L23.5838 39.4796L23.8224 39.4796C24.0291 39.4754 24.2345 39.5138 24.4259 39.5925C24.6173 39.6713 24.7907 39.7886 24.9354 39.9373C25.0801 40.086 25.1932 40.263 25.2675 40.4573C25.3418 40.6516 25.3759 40.8591 25.3677 41.0672L25.2904 46.5117Z" fill="#45C269"/>
<path d="M17.8303 42.2778C17.7908 42.2365 17.7908 42.1968 17.7908 42.1153C17.791 42.069 17.8067 42.0239 17.8354 41.9875C17.864 41.9511 17.9039 41.9255 17.9487 41.9147L18.8621 41.1416C19.0149 41.0326 19.1917 40.9626 19.3772 40.9375L19.8923 40.9375C19.9782 40.9395 20.0615 40.9679 20.1309 41.0188C20.1807 41.0904 20.2082 41.1753 20.2099 41.2627L20.2099 45.8925C20.2081 45.9798 20.1806 46.0649 20.1309 46.1365C20.0586 46.1816 19.9769 46.2093 19.8923 46.2175L19.2192 46.2175C19.1333 46.2159 19.0501 46.1874 18.9806 46.1365C18.9309 46.0649 18.9034 45.9798 18.9016 45.8925L18.9016 42.2778L18.4638 42.6066C18.4243 42.6479 18.3848 42.6479 18.2646 42.6479C18.2251 42.6479 18.1857 42.6066 18.1049 42.5669L17.8303 42.2778Z" fill="#45C269"/>
</g>
<defs>
<clipPath id="clip0_2225_3640">
<rect width="39" height="55" fill="white"/>
</clipPath>
</defs>
</svg>
